<svg xmlns="http://www.w3.org/2000/svg" xmlns:xlink="http://www.w3.org/1999/xlink" width="414" height="123.5" viewBox="0 0 414 123.5">
  <defs>
    <filter id="Ellipse_1" x="147.5" y="0" width="120" height="120" filterUnits="userSpaceOnUse">
      <feOffset input="SourceAlpha"/>
      <feGaussianBlur stdDeviation="7.5" result="blur"/>
      <feFlood flood-opacity="0.49"/>
      <feComposite operator="in" in2="blur"/>
      <feComposite in="SourceGraphic"/>
    </filter>
  </defs>
  <g id="bottom-bar" transform="translate(0 22.5)">
    <rect id="bottom-rectangle" width="414" height="66" transform="translate(0 35)" fill="#194e78"/>
    <g id="home-icon" transform="translate(170 0)">
      <g transform="matrix(1, 0, 0, 1, -170, -22.5)" filter="url(#Ellipse_1)">
        <circle id="Ellipse_1-2" data-name="Ellipse 1" cx="37.5" cy="37.5" r="37.5" transform="translate(170 22.5)" fill="#194e78"/>
      </g>
      <g id="home" transform="translate(14.327 18.143)">
        <path id="Path_18" data-name="Path 18" d="M0,18.737a5.056,5.056,0,0,1,.581-.689Q10.794,9.524,21.018,1.015a3.612,3.612,0,0,1,5.036.008q3.194,2.662,6.381,5.333c.115.1.236.187.419.332.012-.213.026-.355.026-.5,0-1.624,0-3.247,0-4.871,0-.93.3-1.228,1.245-1.229q2.5,0,5.009,0c.894,0,1.215.327,1.215,1.224,0,3.722.006,7.445-.008,11.167a.887.887,0,0,0,.368.771c1.917,1.575,3.821,3.165,5.73,4.751.777.645.821,1.087.181,1.852-.473.563-.941,1.129-1.418,1.69a1.021,1.021,0,0,1-1.661.142L24.132,5.5c-.187-.156-.376-.311-.6-.5-.734.61-1.461,1.213-2.187,1.818L3.559,21.655a1.041,1.041,0,0,1-1.727-.147C1.216,20.772.61,20.028,0,19.287,0,19.1,0,18.921,0,18.737Z" transform="translate(0 0.004)" fill="#fff"/>
        <path id="Path_19" data-name="Path 19" d="M72.964,89.1V77.959H65.473V89.138h-.558q-5.146,0-10.293,0A1.962,1.962,0,0,1,52.4,86.91q0-6.663-.005-13.326a.85.85,0,0,1,.32-.75q8.058-6.621,16.1-13.262c.128-.1.262-.2.416-.321,1.206.992,2.4,1.973,3.589,2.955q6.435,5.3,12.872,10.6a.85.85,0,0,1,.353.734c-.01,4.519,0,9.037-.009,13.555a1.893,1.893,0,0,1-2,2.035c-3.584.012-7.168,0-10.752,0A3.107,3.107,0,0,1,72.964,89.1Z" transform="translate(-45.681 -51.663)" fill="#fff"/>
      </g>
    </g>
    <g id="question" transform="translate(367.045 53.402)">
      <path id="Path_22" data-name="Path 22" d="M13.164,96.254A1.973,1.973,0,0,1,12.1,95.231c-.42-.769-.888-1.513-1.3-2.285a1.971,1.971,0,0,0-1.242-.99,13.236,13.236,0,0,1-7.243-5.339,13.433,13.433,0,0,1-.038-15c.125-.187.267-.33.508-.293.345.054.464.4.272.742C2.7,72.694,2.3,73.309,2,73.968A12.555,12.555,0,0,0,9.816,91.1a2.772,2.772,0,0,1,1.749,1.382c.468.857.97,1.695,1.46,2.539.264.454.612.453.876,0,.511-.879,1.023-1.756,1.523-2.641a2.5,2.5,0,0,1,1.518-1.221c.381-.114.753-.258,1.13-.388.316-.109.555-.028.656.219s-.016.5-.341.622c-.373.14-.748.277-1.13.386a1.7,1.7,0,0,0-1.067.847c-.447.8-.926,1.582-1.366,2.386a1.972,1.972,0,0,1-1.063,1.023Z" transform="translate(-0.003 -65.613)" fill="#fff"/>
      <path id="Path_23" data-name="Path 23" d="M65.962,13.5a13.5,13.5,0,0,1-6.636,11.551.7.7,0,0,1-.468.126.577.577,0,0,1-.335-.324c-.081-.205.039-.376.226-.5.5-.331,1.016-.636,1.478-1.012a12.263,12.263,0,0,0,4.784-10.49A12.455,12.455,0,0,0,54.726,1.11,12.274,12.274,0,0,0,43.471,4.718c-.085.084-.165.173-.25.257a.469.469,0,0,1-.686.074.453.453,0,0,1,.04-.686A23.79,23.79,0,0,1,44.559,2.6,13.144,13.144,0,0,1,53.084.01a13.474,13.474,0,0,1,12.544,10.6,9.624,9.624,0,0,1,.177,1.03C65.871,12.263,65.911,12.89,65.962,13.5Z" transform="translate(-39.007 0.002)" fill="#fff"/>
      <path id="Path_24" data-name="Path 24" d="M113.179,75.845c0-.4,0-.8,0-1.2a1.609,1.609,0,0,1,1.605-1.657,1.436,1.436,0,1,0-1.433-1.425,1.611,1.611,0,1,1-3.218-.123,4.653,4.653,0,0,1,9.117-1.2c.106.363.014.606-.258.692s-.487-.075-.6-.426a3.676,3.676,0,0,0-3.215-2.689,3.759,3.759,0,0,0-4.1,3.184c-.017.138-.037.277-.042.417a.718.718,0,1,0,1.422.057,2.335,2.335,0,1,1,2.5,2.4c-.675.05-.875.264-.875.936,0,.758,0,1.516,0,2.273a.719.719,0,0,0,.516.724.669.669,0,0,0,.761-.273,1.137,1.137,0,0,0,.14-.506c.019-.458.011-.917,0-1.376a.481.481,0,0,1,.365-.513,3.753,3.753,0,0,0,2.606-2.863c.075-.317.3-.476.55-.415a.458.458,0,0,1,.319.611,4.584,4.584,0,0,1-2.7,3.327.357.357,0,0,0-.249.4c.014.309.01.618,0,.927a1.609,1.609,0,0,1-3.218,0C113.172,76.7,113.179,76.275,113.179,75.845Z" transform="translate(-101.33 -61.562)" fill="#fff"/>
      <path id="Path_25" data-name="Path 25" d="M148.639,227.245a5.328,5.328,0,0,1-.68-.066,1.261,1.261,0,0,1-1.007-1.121,4.709,4.709,0,0,1-.007-.895,1.254,1.254,0,0,1,1.114-1.183,4.818,4.818,0,0,1,1.218.012,1.236,1.236,0,0,1,1.05,1.11,4.922,4.922,0,0,1,.022.776,1.334,1.334,0,0,1-1.409,1.347h-.3A.076.076,0,0,1,148.639,227.245Zm.019-2.4c-.119,0-.239,0-.358,0a.449.449,0,0,0-.472.44c-.072.625.021.928.318,1.02a.5.5,0,0,0,.147.02c.229,0,.458.008.687,0,.307-.012.454-.171.475-.5.042-.669-.05-.908-.379-.975a.836.836,0,0,0-.149-.01C148.838,224.845,148.748,224.846,148.658,224.847Z" transform="translate(-135.18 -206.044)" fill="#fff"/>
    </g>
    <g id="setting" transform="translate(291 53.73)">
      <path id="Path_119" data-name="Path 119" d="M1.02,13.384V16.6l2.037.515c.282.071.565.141.848.207a.6.6,0,0,1,.482.473A9.926,9.926,0,0,0,5.5,20.5a.634.634,0,0,1-.008.728c-.469.761-.918,1.536-1.389,2.3a.281.281,0,0,0,.048.421c.641.625,1.277,1.257,1.9,1.9.16.166.268.15.447.04.743-.459,1.5-.893,2.244-1.356a.665.665,0,0,1,.782-.019,8.819,8.819,0,0,0,2.64,1.094.657.657,0,0,1,.527.543c.225.94.464,1.878.7,2.831h3.226c.233-.928.477-1.853.693-2.783a.717.717,0,0,1,.585-.6,8.858,8.858,0,0,0,2.581-1.077.664.664,0,0,1,.782,0c.759.473,1.53.93,2.3,1.38a.347.347,0,0,0,.312.009c.726-.7,1.437-1.418,2.169-2.147l-.868-1.457c-.225-.375-.444-.753-.676-1.123a.547.547,0,0,1-.022-.616,10.654,10.654,0,0,0,1.163-2.816.607.607,0,0,1,.516-.437c.848-.207,1.7-.42,2.543-.632.1-.024.2-.054.3-.082V13.386c-.933-.234-1.857-.477-2.786-.693a.713.713,0,0,1-.6-.584,8.629,8.629,0,0,0-1.076-2.581.663.663,0,0,1,0-.782c.468-.751.909-1.517,1.373-2.271.1-.166.12-.271-.035-.422q-.974-.947-1.923-1.921a.265.265,0,0,0-.4-.047c-.753.464-1.52.9-2.27,1.373a.686.686,0,0,1-.81.013,8.827,8.827,0,0,0-2.553-1.062.74.74,0,0,1-.607-.617c-.214-.93-.459-1.853-.7-2.794H13.263c-.535,0-.743-.135-.752-.487C12.5.145,12.719,0,13.263,0h3.594c.441,0,.564.094.674.529.225.887.453,1.773.664,2.663a.471.471,0,0,0,.348.371q1.047.4,2.071.857a.446.446,0,0,0,.481-.012c.788-.486,1.586-.958,2.38-1.433.389-.233.5-.221.817.093q1.328,1.324,2.651,2.652a.535.535,0,0,1,.1.8c-.474.8-.947,1.592-1.432,2.381a.445.445,0,0,0-.028.481c.31.691.6,1.393.873,2.1a.453.453,0,0,0,.352.33c.91.218,1.817.449,2.724.68a.525.525,0,0,1,.478.619q0,1.89,0,3.781c0,.377-.113.52-.484.615-.907.23-1.814.461-2.724.679a.452.452,0,0,0-.352.33c-.272.707-.564,1.407-.868,2.1a.424.424,0,0,0,.014.453c.485.789.957,1.586,1.431,2.381.227.381.207.536-.108.852q-1.3,1.305-2.608,2.608c-.312.312-.47.33-.852.1-.787-.469-1.575-.936-2.355-1.415a.444.444,0,0,0-.481-.026c-.691.311-1.392.6-2.1.874a.452.452,0,0,0-.329.352c-.215.9-.444,1.8-.672,2.694-.1.407-.236.508-.659.508q-1.86,0-3.719,0c-.417,0-.546-.1-.651-.518-.228-.9-.456-1.794-.672-2.694a.45.45,0,0,0-.331-.352c-.707-.271-1.408-.562-2.1-.867a.425.425,0,0,0-.453.015c-.789.484-1.586.958-2.382,1.431-.384.229-.534.207-.851-.11Q4.4,25.6,3.1,24.293c-.314-.315-.331-.465-.1-.852.469-.787.936-1.575,1.415-2.355a.445.445,0,0,0,.025-.481c-.31-.691-.6-1.393-.873-2.1a.453.453,0,0,0-.353-.328c-.9-.216-1.8-.445-2.694-.672-.4-.1-.506-.235-.507-.628q0-1.89,0-3.781c0-.378.111-.518.486-.613.907-.23,1.814-.461,2.724-.679a.449.449,0,0,0,.35-.331c.272-.707.564-1.407.868-2.1a.424.424,0,0,0-.014-.453C3.942,8.132,3.47,7.336,3,6.54c-.229-.383-.209-.534.108-.851q1.314-1.316,2.63-2.628c.3-.3.437-.316.8-.1.814.484,1.621.979,2.441,1.453a.509.509,0,0,0,.387.013q1.1-.435,2.185-.908a.546.546,0,0,0,.263-.287c.093-.264.137-.544.21-.815a.5.5,0,1,1,.972.234c-.1.415-.208.827-.306,1.242a.581.581,0,0,1-.448.469A9.76,9.76,0,0,0,9.452,5.516a.587.587,0,0,1-.671-.038c-.763-.468-1.537-.918-2.3-1.388a.281.281,0,0,0-.421.049q-.938.962-1.9,1.9a.281.281,0,0,0-.056.42c.465.752.905,1.52,1.373,2.27a.665.665,0,0,1,.017.782A8.7,8.7,0,0,0,4.4,12.151a.657.657,0,0,1-.544.526C2.917,12.906,1.979,13.144,1.02,13.384Z" transform="translate(-0.011 0.004)" fill="#fff"/>
      <path id="Path_120" data-name="Path 120" d="M85.248,92.685a7.425,7.425,0,1,1,7.365-8.457A7.264,7.264,0,0,1,91.1,89.841a.47.47,0,0,1-.518.215c-.315-.079-.385-.416-.2-.73a11.684,11.684,0,0,0,.992-1.777,6.513,6.513,0,1,0-2.444,3.13c.1-.065.218-.169.308-.152a.748.748,0,0,1,.448.224.367.367,0,0,1-.128.546,14.078,14.078,0,0,1-1.476.816A6.919,6.919,0,0,1,85.248,92.685Z" transform="translate(-70.237 -70.26)" fill="#fff"/>
    </g>
    <g id="email" transform="translate(92.742 52.732)">
      <path id="Path_11674" data-name="Path 11674" d="M28.812,31.273H13.244a1.692,1.692,0,0,0-.17-.054,2.53,2.53,0,0,1-2.012-1.677,12.717,12.717,0,0,1-.379-2.09c-.088-.57-.147-1.145-.221-1.736H10.1c-2.391,0-4.782.014-7.172-.012a3.4,3.4,0,0,1-1.356-.276A2.67,2.67,0,0,1,0,22.8V2.926c0-.041,0-.081,0-.122A2.715,2.715,0,0,1,2.479.042,16.035,16.035,0,0,1,4.216.01q3.922,0,7.844,0A2.724,2.724,0,0,1,14.874,2.3c.123.658.177,1.33.263,2,.054.419.108.839.164,1.268h.4q6.317,0,12.635,0A2.665,2.665,0,0,1,30.7,6.706a7.1,7.1,0,0,1,.55,1.3V28.831a.983.983,0,0,0-.048.143,2.724,2.724,0,0,1-.967,1.672A3.259,3.259,0,0,1,28.812,31.273ZM15.524,7.4c.1.767.189,1.492.279,2.219q.44,3.556.88,7.113c.32,2.573.631,5.146.97,7.716a1.388,1.388,0,0,1-.385,1.188c-1.048,1.191-2.08,2.4-3.116,3.6-.047.055-.085.119-.148.209H28.271c.835,0,1.152-.322,1.152-1.168V8.555c0-.838-.321-1.158-1.163-1.158H15.524Zm.208,16.487c-.138-1.1-.274-2.168-.407-3.236q-.5-4.042-1-8.083-.6-4.858-1.21-9.716a.991.991,0,0,0-1.124-1.008H2.957c-.8,0-1.13.332-1.13,1.129V22.753c0,.8.331,1.131,1.129,1.131H15.732ZM12.617,28.2l2.135-2.473H12.315C12.413,26.54,12.51,27.33,12.617,28.2Z" transform="translate(0.004 -0.002)" fill="#fff"/>
      <path id="Path_11677" data-name="Path 11677" d="M244.036,158.48c0-.318-.005-.6,0-.884a.915.915,0,1,1,1.828,0c.007.283,0,.566,0,.886h1.445c.427,0,.855-.007,1.281,0a.916.916,0,0,1,.934.893.937.937,0,0,1-.893.941c-.1.011-.264.085-.29.165a11.848,11.848,0,0,1-2.135,3.85c.576.471,1.14.934,1.706,1.4.118.1.243.184.358.286a.912.912,0,0,1,.134,1.284.886.886,0,0,1-1.257.149c-.613-.47-1.2-.97-1.8-1.458-.125-.1-.248-.209-.4-.334-.253.213-.5.425-.745.628-.456.373-.911.749-1.377,1.112a.918.918,0,1,1-1.132-1.438c.559-.457,1.12-.911,1.679-1.369.1-.083.2-.172.305-.266a11.774,11.774,0,0,1-1.892-3.209,1.4,1.4,0,0,1-.066-.17c-.093-.368-.2-.655-.69-.7a.826.826,0,0,1-.653-.96.906.906,0,0,1,.9-.8c.783-.013,1.567,0,2.35,0C243.748,158.48,243.869,158.48,244.036,158.48Zm.916,4.491a9.239,9.239,0,0,0,1.482-2.641h-2.972A9.5,9.5,0,0,0,244.952,162.971Z" transform="translate(-221.996 -144.672)" fill="#fff"/>
      <path id="Path_11678" data-name="Path 11678" d="M65.688,92.059H63.161q-.192.945-.384,1.9c-.066.329-.122.659-.2.986a.917.917,0,1,1-1.794-.377q.9-4.482,1.8-8.962a.954.954,0,0,1,1.054-.88q.794-.006,1.586,0a.949.949,0,0,1,1.031.837q.908,4.509,1.806,9.022a.917.917,0,1,1-1.8.343C66.065,93.979,65.881,93.031,65.688,92.059ZM63.53,90.2h1.784l-.726-3.631h-.333C64.014,87.776,63.775,88.975,63.53,90.2Z" transform="translate(-56.119 -78.241)" fill="#fff"/>
    </g>
    <g id="user" transform="translate(20 53.729)">
      <path id="Path_27" data-name="Path 27" d="M0,14.068c.076-.559.139-1.12.23-1.677A14.957,14.957,0,0,1,11.1.524a14.793,14.793,0,0,1,13,2.558.593.593,0,0,1,.186.9.625.625,0,0,1-.867.052,26.877,26.877,0,0,0-2.6-1.565,12.857,12.857,0,0,0-8.988-.907C6.068,3.091,2.474,6.831,1.4,12.691A13.22,13.22,0,0,0,5.624,25.169c.054.052.117.095.2.164A9.347,9.347,0,0,1,9.94,19.422a9.126,9.126,0,0,1,5.477-1.478,9.41,9.41,0,0,1,8.764,7.38c.075-.059.144-.106.2-.164a13.546,13.546,0,0,0,4.392-9.077A13.642,13.642,0,0,0,26.924,8c-.029-.051-.06-.1-.087-.153a.584.584,0,0,1,.2-.816.566.566,0,0,1,.805.225c.264.456.524.915.746,1.392a15.007,15.007,0,0,1-9.293,20.735,14.143,14.143,0,0,1-3.1.573,2.057,2.057,0,0,0-.254.05H14.063a1.754,1.754,0,0,0-.225-.049,14.468,14.468,0,0,1-7.036-2.4A14.774,14.774,0,0,1,.229,17.591c-.1-.545-.153-1.1-.229-1.648ZM14.948,28.836a13.778,13.778,0,0,0,7.6-2.243c.614-.4.614-.4.441-1.135a8.163,8.163,0,0,0-10.909-5.809A7.961,7.961,0,0,0,6.918,25.86a.442.442,0,0,0,.218.526A13.755,13.755,0,0,0,14.948,28.836Z" transform="translate(0 -0.001)" fill="#fff"/>
      <path id="Path_28" data-name="Path 28" d="M129.953,90.831a5.706,5.706,0,1,1,5.718-5.693A5.717,5.717,0,0,1,129.953,90.831Zm4.45-5.709a4.438,4.438,0,1,0-4.427,4.441A4.446,4.446,0,0,0,134.4,85.122Z" transform="translate(-114.966 -74.069)" fill="#fff"/>
      <path id="Path_29" data-name="Path 29" d="M322.7,61.48a.808.808,0,1,1-.806.79A.817.817,0,0,1,322.7,61.48Z" transform="translate(-296.546 -56.937)" fill="#fff"/>
    </g>
  </g>
</svg>
