<svg id="question" xmlns="http://www.w3.org/2000/svg" width="39.302" height="44.677" viewBox="0 0 39.302 44.677">
  <path id="Path_22" data-name="Path 22" d="M19.192,107.678a2.877,2.877,0,0,1-1.55-1.492c-.612-1.121-1.3-2.205-1.9-3.332a2.874,2.874,0,0,0-1.811-1.443A19.3,19.3,0,0,1,3.37,93.626,19.586,19.586,0,0,1,3.315,71.75c.182-.273.389-.481.741-.427.5.078.677.589.4,1.082-.523.921-1.1,1.817-1.541,2.778a18.306,18.306,0,0,0,11.4,24.983,4.042,4.042,0,0,1,2.551,2.015c.682,1.25,1.414,2.471,2.129,3.7.385.662.892.66,1.278,0,.745-1.281,1.492-2.561,2.221-3.85a3.646,3.646,0,0,1,2.214-1.78c.556-.167,1.1-.377,1.647-.565.46-.159.809-.041.956.319.155.379-.023.729-.5.907-.543.2-1.09.4-1.647.563a2.474,2.474,0,0,0-1.555,1.234c-.652,1.167-1.35,2.307-1.991,3.48a2.875,2.875,0,0,1-1.55,1.491Z" transform="translate(-0.003 -63.001)"/>
  <path id="Path_23" data-name="Path 23" d="M76.756,19.681C76.441,27,73.3,32.645,67.08,36.522a1.026,1.026,0,0,1-.682.183.841.841,0,0,1-.488-.472c-.118-.3.057-.548.33-.729.725-.483,1.482-.928,2.155-1.476A17.88,17.88,0,0,0,75.37,18.734a18.159,18.159,0,0,0-15-17.115A17.9,17.9,0,0,0,43.963,6.88c-.124.122-.24.253-.365.375a.684.684,0,0,1-1,.107.66.66,0,0,1,.058-1A34.687,34.687,0,0,1,45.55,3.786,19.165,19.165,0,0,1,57.979.015a19.645,19.645,0,0,1,18.29,15.453,14.031,14.031,0,0,1,.259,1.5C76.624,17.881,76.683,18.795,76.756,19.681Z" transform="translate(-37.454 0.002)"/>
  <path id="Path_24" data-name="Path 24" d="M114.574,79.938c0-.582-.006-1.163,0-1.745a2.346,2.346,0,0,1,2.341-2.416,2.094,2.094,0,1,0-2.089-2.077,2.349,2.349,0,1,1-4.692-.18,6.784,6.784,0,0,1,13.293-1.743c.154.529.021.884-.377,1.009s-.71-.11-.878-.621a5.36,5.36,0,0,0-4.687-3.921,5.48,5.48,0,0,0-5.979,4.642c-.024.2-.054.4-.062.607a1.047,1.047,0,1,0,2.074.083,3.4,3.4,0,1,1,3.638,3.5c-.984.072-1.276.385-1.276,1.365,0,1.105-.006,2.21,0,3.314a1.049,1.049,0,0,0,.753,1.055.976.976,0,0,0,1.11-.4,1.658,1.658,0,0,0,.2-.738c.028-.668.016-1.337.007-2.006a.7.7,0,0,1,.533-.748,5.472,5.472,0,0,0,3.8-4.174c.11-.462.435-.694.8-.6a.668.668,0,0,1,.465.891,6.684,6.684,0,0,1-3.93,4.852.52.52,0,0,0-.364.584c.021.45.014.9,0,1.352a2.346,2.346,0,0,1-4.692-.007C114.563,81.188,114.574,80.564,114.574,79.938Z" transform="translate(-97.297 -59.111)"/>
  <path id="Path_25" data-name="Path 25" d="M149.424,228.756a7.768,7.768,0,0,1-.992-.1,1.838,1.838,0,0,1-1.469-1.634,6.869,6.869,0,0,1-.01-1.3A1.829,1.829,0,0,1,148.576,224a7.024,7.024,0,0,1,1.777.017,1.8,1.8,0,0,1,1.531,1.619,7.176,7.176,0,0,1,.031,1.131,1.945,1.945,0,0,1-2.054,1.964c-.146,0-.29,0-.436,0A.111.111,0,0,1,149.424,228.756Zm.028-3.5c-.174,0-.349-.007-.522,0a.654.654,0,0,0-.688.641c-.1.912.03,1.353.464,1.487a.733.733,0,0,0,.214.029c.333,0,.668.012,1,0,.448-.017.662-.249.692-.723.061-.976-.073-1.324-.553-1.421a1.218,1.218,0,0,0-.217-.014C149.713,225.256,149.582,225.257,149.452,225.258Z" transform="translate(-129.8 -197.843)"/>
  <path id="Path_26" data-name="Path 26" d="M159.152,235.169c.131,0,.261,0,.392,0a1.225,1.225,0,0,1,.217.014c.479.1.614.445.553,1.421-.029.473-.244.706-.692.723-.333.013-.667,0-1,0a.787.787,0,0,1-.214-.029c-.434-.134-.57-.576-.464-1.487a.655.655,0,0,1,.688-.641C158.8,235.162,158.978,235.169,159.152,235.169Z" transform="translate(-139.5 -207.753)" fill="#fff"/>
</svg>
