<svg xmlns="http://www.w3.org/2000/svg" width="36.102" height="36.101" viewBox="0 0 36.102 36.101">
  <g id="details" transform="translate(-1.5 0.002)">
    <path id="Path_11523" data-name="Path 11523" d="M1.5,129.705c.019-.038.047-.075.066-.122a2.216,2.216,0,0,1,2.279-1.723c2.458-.009,4.915,0,7.363,0h4.444a2.254,2.254,0,0,1,2.4,2.4q.014,2.853,0,5.706a2.261,2.261,0,0,1-2.41,2.4H4.052a2.265,2.265,0,0,1-2.5-1.808.871.871,0,0,0-.047-.094C1.5,134.215,1.5,131.956,1.5,129.705Zm8.267-.358H3.958c-.687,0-.951.273-.951.96v5.6c0,.687.282.96.97.96H15.605c.678,0,.942-.264.942-.932v-5.631c0-.706-.254-.951-.96-.951C13.637,129.347,11.707,129.347,9.767,129.347Z" transform="translate(0 -115.818)" fill="#194e78"/>
    <path id="Path_11524" data-name="Path 11524" d="M1.5,273.405c.047-.141.1-.282.16-.424a2.245,2.245,0,0,1,2.185-1.422c2.486-.009,4.981,0,7.467,0h4.331a2.255,2.255,0,0,1,2.41,2.429v5.32c0,1.629-.4,2.2-1.883,2.778H3.411a6.931,6.931,0,0,1-1-.471,2.311,2.311,0,0,1-.9-1.431Q1.5,276.781,1.5,273.405Zm8.286-.348H3.939c-.65,0-.932.273-.932.913v5.668c0,.659.282.942.951.942H15.615c.65,0,.923-.273.923-.923v-5.668c0-.678-.254-.932-.942-.932C13.656,273.047,11.716,273.057,9.786,273.057Z" transform="translate(0 -245.988)" fill="#194e78"/>
    <path id="Path_11525" data-name="Path 11525" d="M1.5,3.944a5.457,5.457,0,0,1,.932-2.175,4.5,4.5,0,1,1-.866,3.5,1.623,1.623,0,0,0-.066-.2Zm1.507.574a3.013,3.013,0,1,0,3-3.023A3.032,3.032,0,0,0,3.007,4.518Z" transform="translate(0 0)" fill="#194e78"/>
    <path id="Path_11526" data-name="Path 11526" d="M209.7,368.9a.9.9,0,0,1-.537-.687.734.734,0,0,1,.6-.791,2.592,2.592,0,0,1,.386-.019h14.792a.745.745,0,0,1,.348,1.412c-.047.028-.1.057-.151.085Z" transform="translate(-188.109 -332.807)" fill="#194e78"/>
    <path id="Path_11527" data-name="Path 11527" d="M1.5,363.1a2.352,2.352,0,0,0,.9,1.431,9.645,9.645,0,0,0,1,.471H1.5Z" transform="translate(0 -328.912)" fill="#194e78"/>
    <path id="Path_11528" data-name="Path 11528" d="M141.322,0h9.548a2.267,2.267,0,0,1,2.448,2.467V6.619a2.261,2.261,0,0,1-2.41,2.4H131.67a2.254,2.254,0,0,1-2.41-2.392c-.009-1.412,0-2.815,0-4.228a2.244,2.244,0,0,1,2.4-2.4ZM141.3,7.523h9.548c.687,0,.97-.273.97-.96V2.439c0-.669-.282-.942-.942-.942H131.708c-.669,0-.942.273-.942.942V6.459c0,.838.226,1.073,1.064,1.073C134.985,7.523,138.148,7.523,141.3,7.523Z" transform="translate(-115.726 -0.002)" fill="#194e78"/>
    <path id="Path_11529" data-name="Path 11529" d="M217.367,127.8h7.184c.132,0,.254,0,.386.009a.742.742,0,0,1,.706.734.764.764,0,0,1-.7.753c-.094.009-.188.009-.282.009H209.9a.774.774,0,0,1-.8-.763.742.742,0,0,1,.791-.725c1-.009,2,0,2.994,0C214.382,127.8,215.87,127.8,217.367,127.8Z" transform="translate(-188.053 -115.768)" fill="#194e78"/>
    <path id="Path_11530" data-name="Path 11530" d="M217.439,177.2H210a.768.768,0,0,1-.857-.838.734.734,0,0,1,.678-.65c.113-.009.235-.009.348-.009h14.444c.113,0,.235,0,.348.009a.729.729,0,0,1,.7.706.766.766,0,0,1-.669.782,2.156,2.156,0,0,1-.348.009Q221.055,177.192,217.439,177.2Z" transform="translate(-188.087 -159.158)" fill="#194e78"/>
    <path id="Path_11531" data-name="Path 11531" d="M217.365,223.6h7.184c.132,0,.254,0,.386.009a.742.742,0,0,1,.706.734.752.752,0,0,1-.669.744c-.1.009-.207.009-.32.009H209.861a.759.759,0,0,1-.763-.763.732.732,0,0,1,.753-.725c1.055-.009,2.119-.009,3.173-.009Z" transform="translate(-188.051 -202.548)" fill="#194e78"/>
    <path id="Path_11532" data-name="Path 11532" d="M217.467,273.074H210.1c-.612,0-.989-.4-.857-.923a.692.692,0,0,1,.64-.565,2.64,2.64,0,0,1,.386-.009h14.444c.113,0,.235,0,.348.009a.736.736,0,0,1,.687.716.753.753,0,0,1-.64.763,2.155,2.155,0,0,1-.348.009Z" transform="translate(-188.162 -246.005)" fill="#194e78"/>
    <path id="Path_11533" data-name="Path 11533" d="M217.588,319.486h7.156c.132,0,.254,0,.386.009a.737.737,0,0,1,.706.706.758.758,0,0,1-.669.782,2.132,2.132,0,0,1-.245.009H210.2a.781.781,0,0,1-.866-.556.726.726,0,0,1,.621-.923,3.184,3.184,0,0,1,.424-.009C212.767,319.476,215.178,319.486,217.588,319.486Z" transform="translate(-188.236 -289.403)" fill="#194e78"/>
    <path id="Path_11534" data-name="Path 11534" d="M24.17,143.609h5.81c.706,0,.951.245.96.951v5.631c0,.678-.264.932-.942.932H18.37c-.687,0-.96-.273-.97-.96v-5.6c0-.7.273-.96.951-.96Q21.261,143.614,24.17,143.609Z" transform="translate(-14.403 -130.08)" fill="#8ba4ba"/>
    <path id="Path_11535" data-name="Path 11535" d="M24.279,287.46h5.81c.687,0,.942.254.942.932v5.668c0,.65-.273.923-.923.923H18.451c-.669,0-.951-.282-.951-.942v-5.668c0-.64.282-.913.932-.913C20.381,287.45,22.33,287.46,24.279,287.46Z" transform="translate(-14.493 -260.391)" fill="#8ba4ba"/>
    <path id="Path_11536" data-name="Path 11536" d="M155.746,21.836h-9.482c-.829,0-1.064-.235-1.064-1.073V16.742c0-.659.273-.942.942-.942h19.171c.669,0,.942.282.942.942v4.124c0,.678-.282.96-.97.96Q160.524,21.84,155.746,21.836Z" transform="translate(-130.169 -14.314)" fill="#8ba4ba"/>
  </g>
</svg>
