<svg id="home" xmlns="http://www.w3.org/2000/svg" width="49.635" height="39.522" viewBox="0 0 49.635 39.522">
  <path id="Path_18" data-name="Path 18" d="M0,19.76a5.332,5.332,0,0,1,.613-.727q10.77-8.99,21.552-17.963a3.81,3.81,0,0,1,5.311.008Q30.845,3.886,34.205,6.7c.122.1.248.2.442.35.012-.224.027-.374.027-.525,0-1.712,0-3.425,0-5.137,0-.98.321-1.3,1.313-1.3q2.641,0,5.283,0c.943,0,1.282.344,1.282,1.291,0,3.926.007,7.851-.008,11.777a.936.936,0,0,0,.388.813c2.022,1.661,4.03,3.338,6.043,5.01.82.681.866,1.146.19,1.953-.5.594-.993,1.191-1.495,1.783a1.077,1.077,0,0,1-1.751.15L25.449,5.8c-.2-.165-.4-.328-.633-.524-.774.643-1.541,1.279-2.306,1.918L3.753,22.837a1.1,1.1,0,0,1-1.822-.155C1.283,21.905.643,21.121,0,20.34,0,20.147,0,19.954,0,19.76Z" transform="translate(0 0.004)"/>
  <path id="Path_19" data-name="Path 19" d="M74.087,90.734V78.981h-7.9V90.769H65.6q-5.427,0-10.854,0A2.069,2.069,0,0,1,52.4,88.42q0-7.027-.005-14.054a.9.9,0,0,1,.338-.791q8.5-6.982,16.977-13.986c.135-.111.277-.213.439-.339,1.272,1.047,2.529,2.081,3.785,3.117Q80.714,67.959,87.5,73.549a.9.9,0,0,1,.373.774c-.011,4.766,0,9.53-.009,14.3a2,2,0,0,1-2.111,2.146c-3.78.012-7.559,0-11.339,0A3.282,3.282,0,0,1,74.087,90.734Z" transform="translate(-45.315 -51.248)"/>
</svg>
