<svg xmlns="http://www.w3.org/2000/svg" width="38.973" height="35.395" viewBox="0 0 38.973 35.395">
  <g id="previous" transform="translate(0 0.038)">
    <path id="Path_11537" data-name="Path 11537" d="M0,33.515V4.728C.611,3.222,1.17,2.846,2.819,2.846H5.485c.132,0,.275-.01.438-.02,0-.448.01-.865,0-1.282A1.358,1.358,0,0,1,6.757.21,2.317,2.317,0,0,1,8.385.048,1.487,1.487,0,0,1,9.687,1.7V2.815h4.019V1.6A1.42,1.42,0,0,1,14.724.129,2.434,2.434,0,0,1,16.291.078a1.474,1.474,0,0,1,1.191,1.587v1.16h4.009V1.513a1.311,1.311,0,0,1,.672-1.2,2.313,2.313,0,0,1,2.462.01,1.266,1.266,0,0,1,.651,1.17c-.01.438,0,.885,0,1.323H29.3c0-.448.01-.865,0-1.282A1.336,1.336,0,0,1,30.13.21,2.317,2.317,0,0,1,31.758.048,1.472,1.472,0,0,1,33.05,1.7v1.15c1.17,0,2.269-.01,3.378,0a3.52,3.52,0,0,1,.865.092,2.235,2.235,0,0,1,1.679,2.218V33.139a2.236,2.236,0,0,1-.661,1.537,2.441,2.441,0,0,1-1.872.682q-16.973-.015-33.936-.01c-.122,0-.254,0-.376-.01a2.223,2.223,0,0,1-2-1.455A2.2,2.2,0,0,0,0,33.515ZM1.231,9.989a1.732,1.732,0,0,0-.01.214v18.8a1.07,1.07,0,0,0,1.18,1.14q12.379,0,24.747,0a4.9,4.9,0,0,0,3.561-1.475,5.689,5.689,0,0,0,1.7-3.877c.031-.6.336-.814.906-.651.5.132,1,.275,1.506.417.977.275,1.944.539,2.931.824V10C25.581,9.989,13.432,9.989,1.231,9.989ZM29.306,4.067H26.65c-1.191,0-2.391,0-3.582.01-.112,0-.305.061-.336.132-.214.58.01.946.631,1.028a.417.417,0,0,0,.112.01.557.557,0,0,1,.509.57.561.561,0,0,1-.458.611A1.7,1.7,0,0,1,21.5,4.891V4.1H14.958c-.122,1.018-.122,1.018.712,1.15a.6.6,0,0,1,.539.59.581.581,0,0,1-.57.6,2.4,2.4,0,0,1-.753-.1,1.443,1.443,0,0,1-1.18-1.587V4.077H7.194c-.183.916-.132,1.007.7,1.16a.557.557,0,0,1,.5.58.534.534,0,0,1-.509.6,2.368,2.368,0,0,1-.753-.071A1.446,1.446,0,0,1,5.912,4.759V4.077c-1.292,0-2.513-.031-3.745.01A1.011,1.011,0,0,0,1.2,5.2c-.01,1.109,0,2.208,0,3.317a1.221,1.221,0,0,0,.031.2h36.53V5.41c0-.987-.366-1.353-1.353-1.353h-5.9a5.883,5.883,0,0,1,0,.6c-.051.376.142.5.468.539l.224.031a.6.6,0,1,1-.1,1.2,3.085,3.085,0,0,1-.916-.214,1.311,1.311,0,0,1-.9-1.364A6.246,6.246,0,0,0,29.306,4.067Zm8.466,23.211c-.183.1-.305.163-.417.234-1.394.824-2.8,1.638-4.182,2.493A9.454,9.454,0,0,1,28.1,31.388q-12.211-.015-24.411-.01a5.852,5.852,0,0,1-2.442-.224.375.375,0,0,0-.01.142c.142.59.539.855,1.292.855h34.2a1.036,1.036,0,0,0,1.038-1.007C37.792,29.872,37.772,28.6,37.772,27.278ZM1.241,33.261c0-.041-.01.01,0,.061.153.58.539.834,1.313.834H36.439a3.448,3.448,0,0,0,.458-.02.944.944,0,0,0,.834-.885c-.57.041-1.14.112-1.709.112q-16.408.015-32.816,0C2.554,33.363,1.9,33.291,1.241,33.261Zm35.615-6.869c-1.15-.315-2.188-.611-3.266-.906a7.216,7.216,0,0,1-1.679,3.734c.031.02.051.041.081.061C33.579,28.326,35.177,27.379,36.856,26.392ZM16.281,2.826c0-.448.01-.855-.01-1.252-.01-.1-.122-.265-.193-.275a6,6,0,0,0-.957,0c-.061,0-.173.132-.173.2-.02.438-.01.875-.01,1.323Zm7.784,0V1.777c0-.427-.081-.539-.509-.56a2.239,2.239,0,0,0-.631.081.321.321,0,0,0-.193.234c-.02.427-.01.855-.01,1.292Zm-15.64.01a.834.834,0,0,0,.041-.112c0-.315.01-.631.01-.946,0-.438-.081-.539-.509-.56a1.917,1.917,0,0,0-.59.071.32.32,0,0,0-.2.224c-.02.438-.01.875-.01,1.323Zm23.424-.01c0-.4-.02-.743.01-1.1s-.153-.488-.458-.509a2.515,2.515,0,0,0-.672.071.3.3,0,0,0-.193.234c-.02.427-.01.855-.01,1.3Z" transform="translate(0 0)" fill="#194e78"/>
    <path id="Path_11538" data-name="Path 11538" d="M100.081,140.166c0,.753-.01,1.465,0,2.167a.638.638,0,0,1-1.15.478c-2.117-2.035-4.253-4.08-6.38-6.136a.633.633,0,0,1,.01-1.068q3.19-3.083,6.39-6.146a.648.648,0,0,1,.753-.214.656.656,0,0,1,.387.712c-.01.712,0,1.425,0,2.188h5.9a6.345,6.345,0,0,1,6.39,5.3,10.816,10.816,0,0,1,.112,1.821c.02,1.018.01,2.025,0,3.042q0,.687-.519.763c-.346.051-.58-.122-.722-.57a3.278,3.278,0,0,0-2.91-2.269,5.249,5.249,0,0,0-.794-.081q-3.617-.015-7.235-.01C100.254,140.156,100.193,140.156,100.081,140.166Zm-1.211-8.934c-1.75,1.679-3.419,3.287-5.118,4.915,1.7,1.628,3.368,3.236,5.118,4.9v-1.323c0-.6.193-.794.794-.794h7.54a6.063,6.063,0,0,1,3.989,1.231c.01.01.041,0,.132-.01a19.494,19.494,0,0,0-.153-2.564,5.1,5.1,0,0,0-5.1-4.213c-2.127-.01-4.264,0-6.39,0-.6,0-.8-.2-.8-.794C98.86,132.158,98.87,131.751,98.87,131.232Z" transform="translate(-82.874 -116.083)" fill="#194e78"/>
    <path id="Path_11539" data-name="Path 11539" d="M111.929,149.2v1.343c0,.59.2.794.8.794,2.127,0,4.264-.01,6.39,0a5.121,5.121,0,0,1,5.1,4.213,19.5,19.5,0,0,1,.153,2.564c-.092.01-.122.02-.132.01a6.046,6.046,0,0,0-3.989-1.231h-7.54c-.6,0-.794.193-.794.794v1.323c-1.74-1.669-3.419-3.277-5.118-4.9C108.5,152.487,110.178,150.879,111.929,149.2Z" transform="translate(-95.932 -134.052)" fill="#aebfce"/>
  </g>
</svg>
