<svg id="user" xmlns="http://www.w3.org/2000/svg" width="41.517" height="41.521" viewBox="0 0 41.517 41.521">
  <path id="Path_27" data-name="Path 27" d="M0,19.469c.105-.773.193-1.55.318-2.321A20.7,20.7,0,0,1,15.368.725a20.473,20.473,0,0,1,17.985,3.54.82.82,0,0,1,.258,1.252.865.865,0,0,1-1.2.073,37.2,37.2,0,0,0-3.6-2.165A17.793,17.793,0,0,0,16.372,2.169C8.4,4.278,3.424,9.453,1.94,17.562c-1.228,6.714.892,12.529,5.843,17.269.075.071.161.131.278.226a12.935,12.935,0,0,1,5.695-8.181,12.63,12.63,0,0,1,7.579-2.045A13.022,13.022,0,0,1,33.464,35.046c.1-.082.2-.147.283-.226a18.746,18.746,0,0,0,6.078-12.562A18.879,18.879,0,0,0,37.26,11.068c-.04-.07-.083-.139-.12-.211a.809.809,0,0,1,.272-1.13.784.784,0,0,1,1.115.311c.365.63.726,1.266,1.032,1.926A20.768,20.768,0,0,1,26.7,40.66a19.573,19.573,0,0,1-4.291.793,2.847,2.847,0,0,0-.352.069H19.461a2.428,2.428,0,0,0-.312-.067,20.023,20.023,0,0,1-9.737-3.317,20.446,20.446,0,0,1-9.1-13.795C.178,23.59.1,22.824,0,22.063ZM20.687,39.906a19.067,19.067,0,0,0,10.521-3.1c.85-.555.85-.555.61-1.571a11.3,11.3,0,0,0-15.1-8.04,11.018,11.018,0,0,0-7.147,8.6.612.612,0,0,0,.3.728A19.036,19.036,0,0,0,20.687,39.906Z" transform="translate(0 -0.001)"/>
  <path id="Path_28" data-name="Path 28" d="M131.541,94.014a7.3,7.3,0,1,1,7.313-7.281A7.311,7.311,0,0,1,131.541,94.014Zm5.691-7.3a5.676,5.676,0,1,0-5.662,5.679A5.686,5.686,0,0,0,137.233,86.712Z" transform="translate(-110.8 -70.817)"/>
  <path id="Path_29" data-name="Path 29" d="M322.7,61.48a.808.808,0,1,1-.806.79A.817.817,0,0,1,322.7,61.48Z" transform="translate(-287.029 -54.82)"/>
</svg>
