<svg id="setting" xmlns="http://www.w3.org/2000/svg" width="44" height="44" viewBox="0 0 44 44">
  <path id="Path_119" data-name="Path 119" d="M1.49,19.632v4.721l2.988.756c.414.1.829.207,1.244.3a.883.883,0,0,1,.707.694,14.558,14.558,0,0,0,1.64,3.959.93.93,0,0,1-.011,1.068c-.688,1.117-1.347,2.253-2.036,3.37a.412.412,0,0,0,.07.617c.94.917,1.872,1.843,2.786,2.788.235.244.393.22.655.059,1.09-.674,2.2-1.31,3.292-1.989a.975.975,0,0,1,1.147-.028,12.934,12.934,0,0,0,3.872,1.6.963.963,0,0,1,.773.8c.331,1.379.681,2.754,1.029,4.153h4.732c.342-1.362.7-2.717,1.016-4.082a1.052,1.052,0,0,1,.858-.878,12.992,12.992,0,0,0,3.785-1.58.974.974,0,0,1,1.147,0c1.113.694,2.243,1.364,3.377,2.024a.509.509,0,0,0,.458.013c1.064-1.029,2.107-2.079,3.181-3.15-.434-.726-.854-1.432-1.274-2.137-.329-.55-.651-1.1-.992-1.647a.8.8,0,0,1-.032-.9,15.626,15.626,0,0,0,1.706-4.13.891.891,0,0,1,.757-.64c1.244-.3,2.487-.616,3.73-.927.144-.036.287-.08.435-.12V19.635c-1.368-.343-2.723-.7-4.086-1.016a1.046,1.046,0,0,1-.88-.856,12.656,12.656,0,0,0-1.578-3.785.972.972,0,0,1,0-1.147C36.67,11.729,37.318,10.6,38,9.5c.151-.244.176-.4-.051-.618q-1.429-1.389-2.82-2.818a.388.388,0,0,0-.582-.069c-1.1.681-2.23,1.326-3.33,2.014a1,1,0,0,1-1.188.018,12.947,12.947,0,0,0-3.745-1.558,1.086,1.086,0,0,1-.89-.9c-.313-1.364-.674-2.717-1.02-4.1H19.447c-.785,0-1.09-.2-1.1-.714-.016-.538.3-.757,1.1-.757q2.636,0,5.271,0c.647,0,.827.137.988.775.331,1.3.664,2.6.974,3.906a.691.691,0,0,0,.511.544q1.536.588,3.038,1.256a.653.653,0,0,0,.705-.017c1.156-.713,2.325-1.4,3.491-2.1.571-.342.736-.325,1.2.136q1.947,1.942,3.888,3.889a.784.784,0,0,1,.143,1.179c-.7,1.167-1.389,2.335-2.1,3.492a.653.653,0,0,0-.04.705c.454,1.014.878,2.043,1.28,3.079a.664.664,0,0,0,.517.484c1.335.32,2.665.659,4,1a.77.77,0,0,1,.7.907q0,2.772,0,5.545c0,.554-.165.763-.71.9-1.33.338-2.661.676-3.995,1a.663.663,0,0,0-.516.484c-.4,1.037-.827,2.063-1.274,3.081a.621.621,0,0,0,.021.665c.711,1.157,1.4,2.325,2.1,3.492.333.558.3.786-.158,1.249q-1.91,1.914-3.824,3.824c-.458.458-.689.484-1.25.149-1.154-.688-2.31-1.373-3.453-2.076a.651.651,0,0,0-.705-.038c-1.014.456-2.041.88-3.077,1.282a.663.663,0,0,0-.482.516c-.316,1.32-.651,2.635-.986,3.95-.152.6-.347.745-.966.745q-2.728,0-5.454,0c-.612,0-.8-.148-.955-.759-.334-1.315-.669-2.632-.986-3.95a.661.661,0,0,0-.485-.516c-1.037-.4-2.065-.824-3.081-1.271a.624.624,0,0,0-.665.022c-1.157.71-2.325,1.4-3.494,2.1-.563.336-.783.3-1.248-.162q-1.914-1.91-3.824-3.824c-.46-.462-.486-.682-.147-1.249.688-1.154,1.373-2.31,2.076-3.453a.653.653,0,0,0,.037-.705c-.454-1.014-.878-2.043-1.28-3.079a.665.665,0,0,0-.518-.481c-1.32-.317-2.635-.653-3.95-.986-.584-.148-.742-.344-.743-.921q0-2.772,0-5.545c0-.555.163-.759.713-.9,1.33-.338,2.661-.676,4-1a.659.659,0,0,0,.513-.486c.4-1.037.827-2.063,1.274-3.081a.621.621,0,0,0-.021-.665c-.711-1.157-1.4-2.325-2.1-3.492-.336-.562-.306-.783.158-1.248Q6.474,6.416,8.4,4.492c.436-.435.64-.463,1.169-.149,1.194.71,2.378,1.436,3.579,2.131a.746.746,0,0,0,.568.02q1.615-.637,3.2-1.331a.8.8,0,0,0,.386-.421c.136-.387.2-.8.309-1.2a.736.736,0,1,1,1.425.343c-.142.609-.3,1.212-.449,1.821a.852.852,0,0,1-.656.688,14.314,14.314,0,0,0-4.083,1.695.861.861,0,0,1-.985-.056C11.753,7.35,10.618,6.69,9.5,6a.412.412,0,0,0-.617.072Q7.51,7.483,6.1,8.86a.413.413,0,0,0-.082.616c.682,1.1,1.327,2.229,2.014,3.33a.975.975,0,0,1,.024,1.147,12.761,12.761,0,0,0-1.605,3.871.963.963,0,0,1-.8.771C4.272,18.931,2.9,19.281,1.49,19.632Z" transform="translate(-0.011 0.004)"/>
  <path id="Path_120" data-name="Path 120" d="M90.225,102.655a12.41,12.41,0,1,1,12.3-14.134A12.15,12.15,0,0,1,100,97.9a.784.784,0,0,1-.865.359c-.526-.132-.643-.7-.328-1.219a19.532,19.532,0,0,0,1.656-2.969,10.93,10.93,0,1,0-9.579,7.1,10.781,10.781,0,0,0,5.5-1.872c.162-.109.363-.283.515-.255a1.248,1.248,0,0,1,.749.374.613.613,0,0,1-.213.913,23.5,23.5,0,0,1-2.464,1.365A11.544,11.544,0,0,1,90.225,102.655Z" transform="translate(-68.237 -68.251)"/>
</svg>
